<svg xmlns="http://www.w3.org/2000/svg" version="1.1" xmlns:xlink="http://www.w3.org/1999/xlink" xmlns:svgjs="http://svgjs.com/svgjs" width="1440" height="200" preserveAspectRatio="none" viewBox="0 0 1440 200"><g mask="url(&quot;#SvgjsMask4449&quot;)" fill="none"><rect width="1440" height="200" x="0" y="0" fill="rgba(24, 24, 24, 1)"></rect><rect width="68" height="68" clip-path="url(&quot;#SvgjsClipPath4450&quot;)" x="337.92" y="-22.01" fill="url(#SvgjsPattern4451)" transform="rotate(18.85, 371.92, 11.99)"></rect><path d="M436.05 72.69L447.64 67.23 455.51 77.33 467.09 71.88 474.96 81.98 486.54 76.53 494.41 86.63" stroke="#d3b714" stroke-width="1"></path><circle r="16.666666666666668" cx="779.7" cy="16.73" stroke="rgba(114, 25, 50, 1)" stroke-width="1.56" stroke-dasharray="4, 4"></circle><rect width="101.76" height="101.76" clip-path="url(&quot;#SvgjsClipPath4452&quot;)" x="333.39" y="-25.83" fill="url(#SvgjsPattern4453)" transform="rotate(132.43, 384.27, 25.05)"></rect><path d="M1273.28 135.37a5.6 5.6 0 1 0 5.27-9.88 5.6 5.6 0 1 0-5.27 9.88zM1280.81 121.25a5.6 5.6 0 1 0 5.27-9.88 5.6 5.6 0 1 0-5.27 9.88zM1288.34 107.14a5.6 5.6 0 1 0 5.27-9.88 5.6 5.6 0 1 0-5.27 9.88zM1295.87 93.02a5.6 5.6 0 1 0 5.27-9.88 5.6 5.6 0 1 0-5.27 9.88zM1272.33 171.14a5.6 5.6 0 1 0 5.27-9.89 5.6 5.6 0 1 0-5.27 9.89zM1279.86 157.02a5.6 5.6 0 1 0 5.27-9.88 5.6 5.6 0 1 0-5.27 9.88zM1287.39 142.9a5.6 5.6 0 1 0 5.27-9.88 5.6 5.6 0 1 0-5.27 9.88zM1294.92 128.79a5.6 5.6 0 1 0 5.28-9.89 5.6 5.6 0 1 0-5.28 9.89z" fill="rgba(240, 117, 69, 1)"></path><path d="M883.62-0.03L881.81 12.65 869.04 13.67 867.24 26.35 854.47 27.37 852.67 40.04 839.9 41.07" stroke="rgba(114, 25, 50, 1)" stroke-width="1.97" stroke-dasharray="3, 3"></path><path d="M1432.04 114.98L1437.54 103.42 1450.03 106.25 1455.53 94.69 1468.02 97.52 1473.53 85.95 1486.02 88.78" stroke="rgba(114, 25, 50, 1)" stroke-width="2.06" stroke-dasharray="3, 3"></path><path d="M528.3 46.66L537.7 55.36 531.27 66.44 540.67 75.13 534.25 86.21 543.65 94.91 537.23 105.99M520.39 47.85L529.79 56.55 523.36 67.63 532.76 76.33 526.34 87.4 535.74 96.1 529.32 107.18" stroke="rgba(114, 25, 50, 1)" stroke-width="1.63" stroke-dasharray="4, 4"></path><path d="M1386.12 7.95L1381.09 19.73 1368.5 17.4 1363.46 29.18 1350.87 26.85 1345.83 38.63 1333.24 36.3M1382.34 0.9L1377.31 12.68 1364.72 10.35 1359.68 22.13 1347.09 19.8 1342.05 31.57 1329.46 29.25M1378.56-6.15L1373.53 5.63 1360.94 3.3 1355.9 15.08 1343.31 12.75 1338.27 24.52 1325.68 22.2" stroke="rgba(114, 25, 50, 1)" stroke-width="1" stroke-dasharray="2, 2"></path><path d="M739.89 62.22a5.6 5.6 0 1 0-1.38-11.11 5.6 5.6 0 1 0 1.38 11.11zM737.92 46.35a5.6 5.6 0 1 0-1.38-11.12 5.6 5.6 0 1 0 1.38 11.12zM735.95 30.47a5.6 5.6 0 1 0-1.38-11.12 5.6 5.6 0 1 0 1.38 11.12zM733.98 14.59a5.6 5.6 0 1 0-1.38-11.12 5.6 5.6 0 1 0 1.38 11.12zM759.71 92.01a5.6 5.6 0 1 0-1.38-11.12 5.6 5.6 0 1 0 1.38 11.12zM757.74 76.13a5.6 5.6 0 1 0-1.38-11.12 5.6 5.6 0 1 0 1.38 11.12zM755.77 60.25a5.6 5.6 0 1 0-1.38-11.11 5.6 5.6 0 1 0 1.38 11.11zM753.8 44.37a5.6 5.6 0 1 0-1.38-11.11 5.6 5.6 0 1 0 1.38 11.11z" fill="rgba(114, 25, 50, 1)"></path><path d="M886.58 38.38L898.07 32.74 906.1 42.72 917.6 37.08 925.62 47.06 937.12 41.42 945.14 51.4M884.84 46.19L896.34 40.55 904.36 50.53 915.86 44.89 923.88 54.87 935.38 49.23 943.41 59.21" stroke="rgba(114, 25, 50, 1)" stroke-width="2.59"></path><rect width="107.4" height="107.4" clip-path="url(&quot;#SvgjsClipPath4454&quot;)" x="1369.73" y="-31.93" fill="url(#SvgjsPattern4455)" transform="rotate(338.88, 1423.43, 21.77)"></rect><path d="M960.71-0.6a5.6 5.6 0 1 0-2.05 11.01 5.6 5.6 0 1 0 2.05-11.01zM957.79 15.13a5.6 5.6 0 1 0-2.05 11.01 5.6 5.6 0 1 0 2.05-11.01zM954.86 30.86a5.6 5.6 0 1 0-2.05 11.01 5.6 5.6 0 1 0 2.05-11.01zM951.93 46.59a5.6 5.6 0 1 0-2.05 11.01 5.6 5.6 0 1 0 2.05-11.01zM950.84-34.99a5.6 5.6 0 1 0-2.05 11.01 5.6 5.6 0 1 0 2.05-11.01zM947.91-19.26a5.6 5.6 0 1 0-2.05 11.01 5.6 5.6 0 1 0 2.05-11.01zM944.98-3.53a5.6 5.6 0 1 0-2.05 11.01 5.6 5.6 0 1 0 2.05-11.01zM942.06 12.2a5.6 5.6 0 1 0-2.05 11.01 5.6 5.6 0 1 0 2.05-11.01z" stroke="rgba(240, 117, 69, 1)" stroke-width="1.97" stroke-dasharray="4, 4"></path><rect width="60" height="60" clip-path="url(&quot;#SvgjsClipPath4456&quot;)" x="1212.48" y="104.56" fill="url(#SvgjsPattern4457)" transform="rotate(170.37, 1242.48, 134.56)"></rect><path d="M1298.44 132.39999999999998 L1291.66 120.07L1303.8055092003283 117.47949079967188z" stroke="rgba(114, 25, 50, 1)" stroke-width="1" stroke-dasharray="2, 2"></path><path d="M241.68 147.68L252.33 154.79 247.74 166.75 258.39 173.86 253.79 185.81 264.44 192.92 259.84 204.87" stroke="rgba(114, 25, 50, 1)" stroke-width="1" stroke-dasharray="3, 2"></path><path d="M975.88 138.16 L1024.34 159.33L970.2857310274085 178.5692689725915z" stroke="rgba(240, 117, 69, 1)" stroke-width="2.32" stroke-dasharray="2, 2"></path><circle r="16.666666666666668" cx="1103.38" cy="196.09" fill="rgba(114, 25, 50, 1)"></circle><rect width="60" height="60" clip-path="url(&quot;#SvgjsClipPath4458&quot;)" x="1253.69" y="78.05" fill="url(#SvgjsPattern4459)" transform="rotate(332.32, 1283.69, 108.05)"></rect><circle r="32.384489051381095" cx="1387.02" cy="80.12" fill="rgba(114, 25, 50, 1)"></circle><path d="M575.24 145.82 L528.05 139.89L576.7268854603543 117.77311453964562z" stroke="rgba(240, 117, 69, 1)" stroke-width="1" stroke-dasharray="2, 2"></path><path d="M208.98 52.35 L272 14.49L188.88419961664266 -18.185800383357346z" fill="rgba(114, 25, 50, 1)"></path><path d="M511.9 53.22 L459.96999999999997 66.36L457.87735294417087 31.732352944170913z" stroke="#d3b714" stroke-width="1.49" stroke-dasharray="4, 4"></path><circle r="27.2296366781861" cx="17.44" cy="33.58" fill="rgba(114, 25, 50, 1)"></circle><path d="M885.55 5.72a5.6 5.6 0 1 0-1.82 11.05 5.6 5.6 0 1 0 1.82-11.05zM882.96 21.51a5.6 5.6 0 1 0-1.82 11.05 5.6 5.6 0 1 0 1.82-11.05zM880.36 37.3a5.6 5.6 0 1 0-1.81 11.05 5.6 5.6 0 1 0 1.81-11.05zM877.77 53.09a5.6 5.6 0 1 0-1.82 11.05 5.6 5.6 0 1 0 1.82-11.05zM874.95-28.45a5.6 5.6 0 1 0-1.82 11.05 5.6 5.6 0 1 0 1.82-11.05zM872.36-12.66a5.6 5.6 0 1 0-1.82 11.05 5.6 5.6 0 1 0 1.82-11.05zM869.76 3.13a5.6 5.6 0 1 0-1.81 11.05 5.6 5.6 0 1 0 1.81-11.05zM867.17 18.92a5.6 5.6 0 1 0-1.82 11.05 5.6 5.6 0 1 0 1.82-11.05z" fill="#d3b714"></path><path d="M1434.08 72.14 L1441.72 77.87L1433.141902121502 79.76309787849806z" stroke="rgba(240, 117, 69, 1)" stroke-width="1.98" stroke-dasharray="4, 4"></path><rect width="60" height="60" clip-path="url(&quot;#SvgjsClipPath4460&quot;)" x="86.87" y="161.5" fill="url(#SvgjsPattern4461)" transform="rotate(221.64, 116.87, 191.5)"></rect><rect width="60" height="60" clip-path="url(&quot;#SvgjsClipPath4462&quot;)" x="25.88" y="89.43" fill="url(#SvgjsPattern4463)" transform="rotate(340.97, 55.88, 119.43)"></rect><rect width="60" height="60" clip-path="url(&quot;#SvgjsClipPath4464&quot;)" x="1151.17" y="5.57" fill="url(#SvgjsPattern4465)" transform="rotate(224.36, 1181.17, 35.57)"></rect><rect width="133.2" height="133.2" clip-path="url(&quot;#SvgjsClipPath4466&quot;)" x="1238.52" y="122.66" fill="url(#SvgjsPattern4467)" transform="rotate(334.43, 1305.12, 189.26)"></rect><path d="M18.8 17.77L15.42 30.13 2.63 29.54-0.75 41.89-13.55 41.31-16.92 53.66-29.72 53.07M14.09 11.3L10.71 23.66-2.08 23.07-5.46 35.42-18.25 34.84-21.63 47.19-34.42 46.61" stroke="rgba(240, 117, 69, 1)" stroke-width="1" stroke-dasharray="3, 2"></path><path d="M588.01 192.39L587.98 179.58 600.46 176.74 600.43 163.93 612.92 161.09 612.89 148.28 625.38 145.44M594.27 197.37L594.24 184.56 606.72 181.72 606.69 168.91 619.18 166.07 619.15 153.27 631.63 150.42" stroke="rgba(240, 117, 69, 1)" stroke-width="2.15" stroke-dasharray="3, 2"></path><rect width="105.6" height="105.6" clip-path="url(&quot;#SvgjsClipPath4468&quot;)" x="487.41" y="-3.59" fill="url(#SvgjsPattern4469)" transform="rotate(64.61, 540.21, 49.21)"></rect></g><defs><mask id="SvgjsMask4449"><rect width="1440" height="200" fill="#ffffff"></rect></mask><pattern x="0" y="0" width="68" height="6.8" patternUnits="userSpaceOnUse" id="SvgjsPattern4451"><rect width="68" height="3.4" x="0" y="0" fill="rgba(240, 117, 69, 1)"></rect><rect width="68" height="3.4" x="0" y="3.4" fill="rgba(0, 0, 0, 0)"></rect></pattern><clipPath id="SvgjsClipPath4450"><circle r="17" cx="371.92" cy="11.99"></circle></clipPath><pattern x="0" y="0" width="6.36" height="6.36" patternUnits="userSpaceOnUse" id="SvgjsPattern4453"><path d="M3.18 1L3.18 5.36M1 3.18L5.36 3.18" stroke="rgba(114, 25, 50, 1)" fill="none" stroke-width="1"></path></pattern><clipPath id="SvgjsClipPath4452"><circle r="25.44" cx="384.27" cy="25.05"></circle></clipPath><pattern x="0" y="0" width="10.74" height="10.74" patternUnits="userSpaceOnUse" id="SvgjsPattern4455"><path d="M5.37 1L5.37 9.74M1 5.37L9.74 5.37" stroke="rgba(240, 117, 69, 1)" fill="none" stroke-width="3.72"></path></pattern><clipPath id="SvgjsClipPath4454"><circle r="26.85" cx="1423.43" cy="21.77"></circle></clipPath><pattern x="0" y="0" width="6" height="6" patternUnits="userSpaceOnUse" id="SvgjsPattern4457"><path d="M0 6L3 0L6 6" stroke="#d3b714" fill="none"></path></pattern><clipPath id="SvgjsClipPath4456"><circle r="15" cx="1242.48" cy="134.56"></circle></clipPath><pattern x="0" y="0" width="60" height="6" patternUnits="userSpaceOnUse" id="SvgjsPattern4459"><rect width="60" height="3" x="0" y="0" fill="#d3b714"></rect><rect width="60" height="3" x="0" y="3" fill="rgba(0, 0, 0, 0)"></rect></pattern><clipPath id="SvgjsClipPath4458"><circle r="15" cx="1283.69" cy="108.05"></circle></clipPath><pattern x="0" y="0" width="6" height="6" patternUnits="userSpaceOnUse" id="SvgjsPattern4461"><path d="M3 1L3 5M1 3L5 3" stroke="#d3b714" fill="none" stroke-width="1.05"></path></pattern><clipPath id="SvgjsClipPath4460"><circle r="15" cx="116.87" cy="191.5"></circle></clipPath><pattern x="0" y="0" width="6" height="6" patternUnits="userSpaceOnUse" id="SvgjsPattern4463"><path d="M0 6L3 0L6 6" stroke="rgba(240, 117, 69, 1)" fill="none"></path></pattern><clipPath id="SvgjsClipPath4462"><circle r="15" cx="55.88" cy="119.43"></circle></clipPath><pattern x="0" y="0" width="6" height="6" patternUnits="userSpaceOnUse" id="SvgjsPattern4465"><path d="M3 1L3 5M1 3L5 3" stroke="#d3b714" fill="none" stroke-width="1.17"></path></pattern><clipPath id="SvgjsClipPath4464"><circle r="15" cx="1181.17" cy="35.57"></circle></clipPath><pattern x="0" y="0" width="13.32" height="13.32" patternUnits="userSpaceOnUse" id="SvgjsPattern4467"><path d="M6.66 1L6.66 12.32M1 6.66L12.32 6.66" stroke="rgba(114, 25, 50, 1)" fill="none" stroke-width="4.52"></path></pattern><clipPath id="SvgjsClipPath4466"><circle r="33.3" cx="1305.12" cy="189.26"></circle></clipPath><pattern x="0" y="0" width="105.6" height="8.8" patternUnits="userSpaceOnUse" id="SvgjsPattern4469"><rect width="105.6" height="4.4" x="0" y="0" fill="rgba(114, 25, 50, 1)"></rect><rect width="105.6" height="4.4" x="0" y="4.4" fill="rgba(0, 0, 0, 0)"></rect></pattern><clipPath id="SvgjsClipPath4468"><circle r="26.4" cx="540.21" cy="49.21"></circle></clipPath></defs></svg>